# Blender v3.1.2 OBJ File: '63BasketBall.blend'
# www.blender.org
mtllib 63BasketBallZemin.mtl
o Plane
v -5.000000 0.000000 3.750000
v 5.000000 0.000000 3.750000
v -5.000000 0.000000 -3.750000
v 5.000000 0.000000 -3.750000
v -0.996432 0.000000 3.750000
v 0.996432 0.000000 3.750000
v 0.996432 0.000000 -3.750000
v -0.996432 0.000000 -3.750000
v -4.779943 0.000000 -3.584957
v -4.779943 0.000000 3.584957
v 0.996432 0.000000 3.584957
v 4.779943 0.000000 3.584957
v 4.779943 0.000000 -3.584957
v -0.996432 0.000000 -3.584957
v -0.996432 0.000000 3.584957
v 0.996432 0.000000 -3.584957
v -4.779943 -0.221920 -3.584957
v -4.779943 -0.221920 3.584957
v 0.996432 -0.221920 3.584957
v 4.779943 -0.221920 3.584957
v 4.779943 -0.221920 -3.584957
v -0.996432 -0.221920 -3.584957
v -0.996432 -0.221920 3.584957
v 0.996432 -0.221920 -3.584957
v -5.000000 -0.221920 -3.750000
v -5.000000 -0.221920 3.750000
v 0.996432 -0.221920 3.750000
v 5.000000 -0.221920 3.750000
v 5.000000 -0.221920 -3.750000
v -0.996432 -0.221920 -3.750000
v -0.996432 -0.221920 3.750000
v 0.996432 -0.221920 -3.750000
v -4.779943 0.147819 -3.584957
v -4.769819 0.178192 -3.615331
v -4.810317 0.178192 -3.569771
v -4.810317 0.178192 3.569771
v -4.769819 0.178192 3.615331
v -4.779943 0.147819 3.584957
v 1.026805 0.178192 3.615331
v 0.996432 0.147819 3.584957
v 4.769819 0.178192 3.615331
v 4.810317 0.178192 3.569771
v 4.779943 0.147819 3.584957
v 4.810317 0.178192 -3.569771
v 4.769819 0.178192 -3.615331
v 4.779943 0.147819 -3.584957
v -0.996432 0.147819 -3.584957
v -0.966059 0.178192 -3.615331
v -1.026805 0.178192 -3.615331
v -1.026805 0.178192 3.615331
v -0.996432 0.147819 3.584957
v 1.026805 0.178192 -3.615331
v 0.966059 0.178192 -3.615331
v 0.996432 0.147819 -3.584957
v -4.969627 0.178192 -3.689254
v -4.908880 0.178192 -3.719627
v -5.000000 0.147819 -3.750000
v -4.969627 0.178192 3.689254
v -5.000000 0.147819 3.750000
v -4.908880 0.178192 3.719627
v 1.026805 0.178192 3.719627
v 0.996432 0.147819 3.750000
v 5.000000 0.147819 3.750000
v 4.969627 0.178192 3.689254
v 4.908880 0.178192 3.719627
v 5.000000 0.147819 -3.750000
v 4.908880 0.178192 -3.719627
v 4.969627 0.178192 -3.689254
v -1.026805 0.178192 -3.719627
v -0.966059 0.178192 -3.719627
v -0.996432 0.147819 -3.750000
v -1.026805 0.178192 3.719627
v -0.996432 0.147819 3.750000
v 0.996432 0.147819 -3.750000
v 0.966059 0.178192 -3.719627
v 1.026805 0.178192 -3.719627
vt 0.465663 0.228343
vt 0.465663 0.003144
vt 0.892425 0.003144
vt 0.892425 0.228343
vt 0.465663 0.572160
vt 0.465663 0.346960
vt 0.892425 0.346960
vt 0.892425 0.572160
vt 0.020872 0.749681
vt 0.020872 0.604644
vt 0.031630 0.604644
vt 0.031630 0.749681
vt 0.468491 0.578447
vt 0.468491 0.860975
vt 0.455840 0.860975
vt 0.455840 0.578447
vt 0.487430 0.578447
vt 0.487430 0.860975
vt 0.474779 0.860975
vt 0.474779 0.578447
vt 0.082033 0.604644
vt 0.082033 0.614468
vt 0.073235 0.614468
vt 0.073235 0.604644
vt 0.577775 0.869819
vt 0.577775 0.578447
vt 0.588533 0.578447
vt 0.588533 0.869819
vt 0.455840 0.346960
vt 0.455840 0.228343
vt 0.594820 0.853803
vt 0.594820 0.578447
vt 0.606261 0.578447
vt 0.606261 0.853803
vt 0.672641 0.578447
vt 0.672641 0.861009
vt 0.668744 0.860975
vt 0.664367 0.578447
vt 0.012967 0.360059
vt 0.439729 0.360060
vt 0.439728 0.585259
vt 0.012967 0.585258
vt 0.012968 0.016242
vt 0.439729 0.016242
vt 0.439729 0.241442
vt 0.012968 0.241440
vt 0.003145 0.003144
vt 0.449553 0.003144
vt 0.003144 0.598357
vt 0.003144 0.360059
vt 0.449551 0.598357
vt 0.449553 0.241442
vt 0.003144 0.241440
vt 0.449552 0.360060
vt 0.898712 0.241441
vt 0.911921 0.241441
vt 0.911921 0.360058
vt 0.898712 0.360058
vt 0.931418 0.360058
vt 0.918209 0.360058
vt 0.918209 0.241441
vt 0.931418 0.241441
vt 0.911921 0.598356
vt 0.898712 0.598356
vt 0.918209 0.003144
vt 0.931418 0.003144
vt 0.898713 0.003144
vt 0.911921 0.003144
vt 0.931418 0.598356
vt 0.918209 0.598356
vt 0.950914 0.449550
vt 0.937705 0.449550
vt 0.937705 0.003144
vt 0.950914 0.003144
vt 0.937705 0.455837
vt 0.950914 0.455837
vt 0.950914 0.902243
vt 0.937705 0.902243
vt 0.630277 0.853803
vt 0.630277 0.578447
vt 0.641035 0.578447
vt 0.641035 0.853803
vt 0.988058 0.882604
vt 0.988058 0.455837
vt 0.996856 0.455837
vt 0.996856 0.882604
vt 0.612548 0.853803
vt 0.612548 0.578447
vt 0.623990 0.578447
vt 0.623990 0.853803
vt 0.647322 0.853803
vt 0.647322 0.578447
vt 0.658080 0.578447
vt 0.658080 0.853803
vt 0.066947 0.604644
vt 0.066947 0.614468
vt 0.058149 0.614468
vt 0.058149 0.604644
vt 0.704264 0.578447
vt 0.704264 0.791301
vt 0.692774 0.791301
vt 0.692774 0.578447
vt 0.003144 0.749682
vt 0.003144 0.604644
vt 0.014585 0.604644
vt 0.014585 0.749682
vt 0.972972 0.902239
vt 0.972972 0.455837
vt 0.981771 0.455837
vt 0.981771 0.902239
vt 0.966685 0.010256
vt 0.966685 0.435195
vt 0.957203 0.442306
vt 0.957201 0.003144
vt 0.560730 0.869819
vt 0.560730 0.578447
vt 0.571488 0.578447
vt 0.571488 0.869819
vt 0.988059 0.429911
vt 0.988058 0.003144
vt 0.996856 0.003144
vt 0.996856 0.429911
vt 0.981771 0.003144
vt 0.981771 0.449546
vt 0.972972 0.449546
vt 0.972972 0.003144
vt 0.686487 0.578447
vt 0.686487 0.859789
vt 0.678928 0.859789
vt 0.678928 0.578447
vt 0.505159 0.578447
vt 0.505159 0.869819
vt 0.493717 0.869819
vt 0.493717 0.578447
vt 0.511446 0.869819
vt 0.511446 0.578447
vt 0.522887 0.578447
vt 0.522887 0.869819
vt 0.256102 0.607348
vt 0.253475 0.607348
vt 0.255894 0.604644
vt 0.247188 0.604644
vt 0.247188 0.608272
vt 0.245230 0.606521
vt 0.262389 0.607348
vt 0.264808 0.604644
vt 0.265016 0.607348
vt 0.271510 0.604644
vt 0.273930 0.607348
vt 0.271303 0.607348
vt 0.238943 0.607775
vt 0.235991 0.606732
vt 0.238943 0.604644
vt 0.217512 0.606732
vt 0.220465 0.604644
vt 0.220465 0.607775
vt 0.168011 0.607370
vt 0.170997 0.604644
vt 0.170997 0.610640
vt 0.181327 0.604644
vt 0.181327 0.609073
vt 0.177284 0.604644
vt 0.201986 0.604644
vt 0.201986 0.609072
vt 0.197943 0.609072
vt 0.191656 0.609072
vt 0.187614 0.604644
vt 0.191656 0.604644
vt 0.226752 0.606732
vt 0.229704 0.604644
vt 0.229704 0.607775
vt 0.211225 0.607775
vt 0.208273 0.606732
vt 0.211225 0.604644
vt 0.722502 0.885094
vt 0.722502 0.578447
vt 0.728167 0.578447
vt 0.728167 0.885094
vt 0.809920 0.798728
vt 0.809920 0.578447
vt 0.813886 0.578447
vt 0.813886 0.798728
vt 0.710551 0.885094
vt 0.710551 0.578447
vt 0.716215 0.578447
vt 0.716215 0.885094
vt 0.820173 0.798728
vt 0.820173 0.578447
vt 0.824140 0.578447
vt 0.824140 0.798728
vt 0.798895 0.801886
vt 0.798895 0.578447
vt 0.803633 0.578447
vt 0.803633 0.801886
vt 0.787870 0.801886
vt 0.787870 0.578447
vt 0.792608 0.578447
vt 0.792608 0.801886
vt 0.037917 0.749682
vt 0.037917 0.604644
vt 0.041746 0.604644
vt 0.041746 0.749682
vt 0.554442 0.578447
vt 0.554442 0.894963
vt 0.544952 0.894963
vt 0.544952 0.578447
vt 0.770468 0.578447
vt 0.770468 0.809540
vt 0.765641 0.809540
vt 0.765641 0.578447
vt 0.538665 0.578447
vt 0.538665 0.894963
vt 0.529174 0.894963
vt 0.529174 0.578447
vt 0.781583 0.578447
vt 0.781583 0.809540
vt 0.776756 0.809540
vt 0.776756 0.578447
vt 0.743760 0.578447
vt 0.743760 0.811097
vt 0.734454 0.811097
vt 0.734454 0.578447
vt 0.759354 0.578447
vt 0.759354 0.811097
vt 0.750048 0.811097
vt 0.750048 0.578447
vt 0.051862 0.604644
vt 0.051862 0.749682
vt 0.048033 0.749682
vt 0.048033 0.604644
vt 0.092362 0.604644
vt 0.092362 0.616497
vt 0.088320 0.616497
vt 0.088320 0.604644
vt 0.122523 0.604644
vt 0.122523 0.614990
vt 0.118894 0.614990
vt 0.118895 0.604644
vt 0.108979 0.614990
vt 0.108979 0.604644
vt 0.112607 0.604644
vt 0.112607 0.614990
vt 0.131941 0.604644
vt 0.131941 0.614468
vt 0.128810 0.614468
vt 0.128810 0.604644
vt 0.102692 0.604644
vt 0.102692 0.616497
vt 0.098650 0.616497
vt 0.098650 0.604644
vt 0.147647 0.610852
vt 0.147647 0.604644
vt 0.151821 0.604644
vt 0.151821 0.610852
vt 0.141360 0.604644
vt 0.141360 0.614468
vt 0.138228 0.614468
vt 0.138228 0.604644
vt 0.161724 0.604644
vt 0.161724 0.610852
vt 0.158109 0.610852
vt 0.158109 0.604644
vt 0.966685 0.462949
vt 0.966685 0.887888
vt 0.957203 0.895000
vt 0.957201 0.455837
vn 0.0000 1.0000 0.0000
vn 0.0000 0.0000 -1.0000
vn 1.0000 0.0000 0.0000
vn 0.0000 0.0000 1.0000
vn 0.0000 -1.0000 0.0000
vn -1.0000 0.0000 0.0000
vn 0.6903 0.3835 0.6136
vn 0.6903 0.3835 -0.6136
vn -0.6903 0.3835 -0.6136
vn -0.6903 0.3835 0.6136
vn 0.0000 0.7071 0.7071
vn -0.1826 0.9129 -0.3651
vn -0.1826 0.9129 0.3651
vn 0.1826 0.9129 0.3651
vn 0.1826 0.9129 -0.3651
vn 0.0000 0.7071 -0.7071
vn 0.7071 0.7071 0.0000
vn -0.7071 0.7071 0.0000
usemtl Material.001
s off
f 11/1/1 12/2/1 13/3/1 16/4/1
f 10/5/1 15/6/1 14/7/1 9/8/1
f 15/6/1 11/1/1 16/4/1 14/7/1
f 7/9/2 8/10/2 71/11/2 74/12/2
f 41/13/1 39/14/1 61/15/1 65/16/1
f 34/17/1 49/18/1 69/19/1 56/20/1
f 5/21/3 15/22/3 51/23/3 73/24/3
f 6/25/4 2/26/4 63/27/4 62/28/4
f 11/1/1 15/6/1 5/29/1 6/30/1
f 12/31/2 11/32/2 40/33/2 43/34/2
f 52/35/1 45/36/1 67/37/1 76/38/1
f 19/39/5 24/40/5 21/41/5 20/42/5
f 18/43/5 17/44/5 22/45/5 23/46/5
f 23/46/5 22/45/5 24/40/5 19/39/5
f 18/43/5 26/47/5 25/48/5 17/44/5
f 20/42/5 28/49/5 27/50/5 19/39/5
f 21/41/5 29/51/5 28/49/5 20/42/5
f 17/44/5 25/48/5 30/52/5 22/45/5
f 23/46/5 31/53/5 26/47/5 18/43/5
f 19/39/5 27/50/5 31/53/5 23/46/5
f 24/40/5 32/54/5 29/51/5 21/41/5
f 22/45/5 30/52/5 32/54/5 24/40/5
f 7/55/2 32/56/2 30/57/2 8/58/2
f 5/59/4 31/60/4 27/61/4 6/62/4
f 8/58/2 30/57/2 25/63/2 3/64/2
f 6/62/4 27/61/4 28/65/4 2/66/4
f 4/67/2 29/68/2 32/56/2 7/55/2
f 1/69/4 26/70/4 31/60/4 5/59/4
f 2/71/3 28/72/3 29/73/3 4/74/3
f 3/75/6 25/76/6 26/77/6 1/78/6
f 9/79/4 14/80/4 47/81/4 33/82/4
f 13/83/6 12/84/6 43/85/6 46/86/6
f 16/87/4 13/88/4 46/89/4 54/90/4
f 15/91/2 10/92/2 38/93/2 51/94/2
f 11/95/6 6/96/6 62/97/6 40/98/6
f 48/99/1 53/100/1 75/101/1 70/102/1
f 14/103/4 16/104/4 54/105/4 47/106/4
f 3/107/6 1/108/6 59/109/6 57/110/6
f 44/111/1 42/112/1 64/113/1 68/114/1
f 8/115/2 3/116/2 57/117/2 71/118/2
f 10/119/3 9/120/3 33/121/3 38/122/3
f 2/123/3 4/124/3 66/125/3 63/126/3
f 50/127/1 37/128/1 60/129/1 72/130/1
f 4/131/2 7/132/2 74/133/2 66/134/2
f 1/135/4 5/136/4 73/137/4 59/138/4
f 33/139/7 34/140/7 35/141/7
f 36/142/8 37/143/8 38/144/8
f 41/145/9 42/146/9 43/147/9
f 44/148/10 45/149/10 46/150/10
f 47/151/11 48/152/11 49/153/11
f 52/154/11 53/155/11 54/156/11
f 55/157/12 56/158/12 57/159/12
f 58/160/13 59/161/13 60/162/13
f 63/163/14 64/164/14 65/165/14
f 66/166/15 67/167/15 68/168/15
f 69/169/16 70/170/16 71/171/16
f 74/172/16 75/173/16 76/174/16
f 35/175/17 36/176/17 38/177/17 33/178/17
f 39/179/16 41/180/16 43/181/16 40/182/16
f 42/183/18 44/184/18 46/185/18 43/186/18
f 49/187/11 34/188/11 33/189/11 47/190/11
f 37/191/16 50/192/16 51/193/16 38/194/16
f 45/195/11 52/196/11 54/197/11 46/198/11
f 53/199/11 48/200/11 47/201/11 54/202/11
f 57/203/18 59/204/18 58/205/18 55/206/18
f 62/207/11 63/208/11 65/209/11 61/210/11
f 63/211/17 66/212/17 68/213/17 64/214/17
f 71/215/16 57/216/16 56/217/16 69/218/16
f 59/219/11 73/220/11 72/221/11 60/222/11
f 66/223/16 74/224/16 76/225/16 67/226/16
f 74/227/16 71/228/16 70/229/16 75/230/16
f 60/231/1 37/232/1 36/233/1 58/234/1
f 34/235/1 56/236/1 55/237/1 35/238/1
f 64/239/1 42/240/1 41/241/1 65/242/1
f 40/243/18 62/244/18 61/245/18 39/246/18
f 67/247/1 45/248/1 44/249/1 68/250/1
f 48/251/1 70/252/1 69/253/1 49/254/1
f 73/255/17 51/256/17 50/257/17 72/258/17
f 75/259/1 53/260/1 52/261/1 76/262/1
f 36/263/1 35/264/1 55/265/1 58/266/1
